<?xml version="1.0" encoding="utf-8"?>
<!-- Svg Vector Icons : http://www.onlinewebfonts.com/icon -->
<!DOCTYPE svg PUBLIC "-//W3C//DTD SVG 1.1//EN" "http://www.w3.org/Graphics/SVG/1.1/DTD/svg11.dtd">
<svg version="1.1" xmlns="http://www.w3.org/2000/svg" xmlns:xlink="http://www.w3.org/1999/xlink" x="0px" y="0px" viewBox="0 0 1000 1000" enable-background="new 0 0 1000 1000" xml:space="preserve">
<metadata> Svg Vector Icons : http://www.onlinewebfonts.com/icon </metadata>
<g><path d="M813.4,560.8c-11.2-35.8-31.1-65.6-73.9-81.5c-42.8-15.9-77.1-6.3-109.1,13.5c-16.7,10.3-21.9,30.7-9.2,48.4c4.5,6.2,11,10.3,18.3,13c11.1,4.1,23.2,3.7,32.7-2.3c10.5-6.5,23.3-14.3,42.9-7c19.7,7.3,24.3,21.5,27.9,33.2c3.4,10.8,12.3,19.1,23.4,23.2c7.3,2.7,14.9,3.9,22.4,2.1C808.2,598.6,819.3,579.5,813.4,560.8z"/><path d="M370,492.7c-31.9-19.7-66.3-29.4-109.1-13.5c-42.8,15.9-62.8,45.7-73.9,81.5c-5.8,18.7,5.2,37.8,24.6,42.5c7.5,1.8,15,0.7,22.4-2.1c11.1-4.1,20-12.4,23.4-23.2c3.6-11.6,8.2-25.9,27.9-33.2c19.6-7.3,32.4,0.5,42.9,7c9.6,5.9,21.7,6.4,32.7,2.3c7.3-2.7,13.8-6.8,18.3-13C391.9,523.4,386.6,503,370,492.7z"/><path d="M500,10C229.4,10,10,229.4,10,500c0,270.6,219.4,490,490,490c270.6,0,490-219.4,490-490C990,229.4,770.6,10,500,10z M797,797c-79.3,79.3-184.8,123-297,123s-217.7-43.7-297-123C123.7,717.7,80,612.2,80,500s43.7-217.7,123-297c79.3-79.3,184.8-123,297-123s217.7,43.7,297,123c79.3,79.3,123,184.8,123,297S876.3,717.7,797,797z"/><path d="M703.7,725.7c-2.4-3.5-61.5-85.7-203.7-85.7c-142.8,0-201.3,82.2-203.7,85.7c-11.1,15.9-7.2,37.7,8.7,48.7c6.1,4.3,13.1,6.3,20,6.3c11.1,0,21.9-5.2,28.7-15C354.1,765.2,395,710,500,710c105,0,145.9,55.2,146.3,55.8c6.8,9.7,17.7,15,28.7,15c6.9,0,13.9-2,20-6.3C710.9,763.4,714.8,741.5,703.7,725.7z"/></g>
</svg>