<?xml version="1.0" encoding="UTF-8" standalone="no"?>
<svg
   xmlns:dc="http://purl.org/dc/elements/1.1/"
   xmlns:cc="http://creativecommons.org/ns#"
   xmlns:rdf="http://www.w3.org/1999/02/22-rdf-syntax-ns#"
   xmlns:svg="http://www.w3.org/2000/svg"
   xmlns="http://www.w3.org/2000/svg"
   xmlns:sodipodi="http://sodipodi.sourceforge.net/DTD/sodipodi-0.dtd"
   xmlns:inkscape="http://www.inkscape.org/namespaces/inkscape"
   viewBox="0 -256 1850 1850"
   id="svg3037"
   version="1.1"
   inkscape:version="0.48.3.1 r9886"
   width="100%"
   height="100%"
   sodipodi:docname="medkit_font_awesome.svg">
  <metadata
     id="metadata3047">
    <rdf:RDF>
      <cc:Work
         rdf:about="">
        <dc:format>image/svg+xml</dc:format>
        <dc:type
           rdf:resource="http://purl.org/dc/dcmitype/StillImage" />
      </cc:Work>
    </rdf:RDF>
  </metadata>
  <defs
     id="defs3045" />
  <sodipodi:namedview
     pagecolor="#ffffff"
     bordercolor="#666666"
     borderopacity="1"
     objecttolerance="10"
     gridtolerance="10"
     guidetolerance="10"
     inkscape:pageopacity="0"
     inkscape:pageshadow="2"
     inkscape:window-width="640"
     inkscape:window-height="480"
     id="namedview3043"
     showgrid="false"
     inkscape:zoom="0.13169643"
     inkscape:cx="896"
     inkscape:cy="896"
     inkscape:window-x="0"
     inkscape:window-y="25"
     inkscape:window-maximized="0"
     inkscape:current-layer="svg3037" />
  <g
     transform="matrix(1,0,0,-1,37.966102,1297.8644)"
     id="g3039">
    <path
       d="m 1280,416 v 192 q 0,14 -9,23 -9,9 -23,9 h -224 v 224 q 0,14 -9,23 -9,9 -23,9 H 800 q -14,0 -23,-9 -9,-9 -9,-23 V 640 H 544 q -14,0 -23,-9 -9,-9 -9,-23 V 416 q 0,-14 9,-23 9,-9 23,-9 H 768 V 160 q 0,-14 9,-23 9,-9 23,-9 h 192 q 14,0 23,9 9,9 9,23 v 224 h 224 q 14,0 23,9 9,9 9,23 z m -640,736 h 512 v 128 H 640 v -128 z m -384,0 V -128 H 224 Q 132,-128 66,-62 0,4 0,96 v 832 q 0,92 66,158 66,66 158,66 h 32 z m 1184,0 V -128 H 352 v 1280 h 160 v 160 q 0,40 28,68 28,28 68,28 h 576 q 40,0 68,-28 28,-28 28,-68 v -160 h 160 z M 1792,928 V 96 q 0,-92 -66,-158 -66,-66 -158,-66 h -32 v 1280 h 32 q 92,0 158,-66 66,-66 66,-158 z"
       id="path3041"
       inkscape:connector-curvature="0"
       style="fill:currentColor" />
  </g>
</svg>
